HIERARCHY
ROOT root
{
	OFFSET 0.000000 0.000000 0.000000
	CHANNELS 6 Xposition Yposition Zposition Zrotation Yrotation Xrotation
	JOINT lhip
	{
		OFFSET 0.058581 -0.082280 -0.017664
		CHANNELS 3 Zrotation Yrotation Xrotation
		JOINT lknee
		{
			OFFSET 0.043451 -0.386469 0.008037
			CHANNELS 3 Zrotation Yrotation Xrotation
			JOINT lankle
			{
				OFFSET -0.014790 -0.426874 -0.037428
				CHANNELS 3 Zrotation Yrotation Xrotation
				JOINT ltoe
				{
					OFFSET 0.041054 -0.060286 0.122042
					CHANNELS 3 Zrotation Yrotation Xrotation
					End Site
					{
						OFFSET 0.000000 0.000000 0.000000
					}
				}
			}
		}
	}
	JOINT rhip
	{
		OFFSET -0.060310 -0.090513 -0.013543
		CHANNELS 3 Zrotation Yrotation Xrotation
		JOINT rknee
		{
			OFFSET -0.043257 -0.383688 -0.004843
			CHANNELS 3 Zrotation Yrotation Xrotation
			JOINT rankle
			{
				OFFSET 0.019056 -0.420046 -0.034562
				CHANNELS 3 Zrotation Yrotation Xrotation
				JOINT rtoe
				{
					OFFSET -0.034840 -0.062106 0.130323
					CHANNELS 3 Zrotation Yrotation Xrotation
					End Site
					{
						OFFSET 0.000000 0.000000 0.000000
					}
				}
			}
		}
	}
	JOINT lowerback
	{
		OFFSET 0.004439 0.124404 -0.038385
		CHANNELS 3 Zrotation Yrotation Xrotation
		JOINT upperback
		{
			OFFSET 0.004488 0.137956 0.026820
			CHANNELS 3 Zrotation Yrotation Xrotation
			JOINT chest
			{
				OFFSET -0.002265 0.056032 0.002855
				CHANNELS 3 Zrotation Yrotation Xrotation
				JOINT lowerneck
				{
					OFFSET -0.013390 0.211636 -0.033468
					CHANNELS 3 Zrotation Yrotation Xrotation
					JOINT upperneck
					{
						OFFSET 0.010113 0.088937 0.050410
						CHANNELS 3 Zrotation Yrotation Xrotation
						End Site
						{
							OFFSET 0.000000 0.000000 0.000000
						}
					}
				}
				JOINT lclavicle
				{
					OFFSET 0.071702 0.114000 -0.018898
					CHANNELS 3 Zrotation Yrotation Xrotation
					JOINT lshoulder
					{
						OFFSET 0.122921 0.045205 -0.019046
						CHANNELS 3 Zrotation Yrotation Xrotation
						JOINT lelbow
						{
							OFFSET 0.255332 -0.015649 -0.022946
							CHANNELS 3 Zrotation Yrotation Xrotation
							JOINT lwrist
							{
								OFFSET 0.265709 0.012698 -0.007375
								CHANNELS 3 Zrotation Yrotation Xrotation
								End Site
								{
									OFFSET 0.000000 0.000000 0.000000
								}
							}
						}
					}
				}
				JOINT rclavicle
				{
					OFFSET -0.082954 0.112472 -0.023707
					CHANNELS 3 Zrotation Yrotation Xrotation
					JOINT rshoulder
					{
						OFFSET -0.113228 0.046853 -0.008472
						CHANNELS 3 Zrotation Yrotation Xrotation
						JOINT relbow
						{
							OFFSET -0.260127 -0.014369 -0.031269
							CHANNELS 3 Zrotation Yrotation Xrotation
							JOINT rwrist
							{
								OFFSET -0.269108 0.006794 -0.006027
								CHANNELS 3 Zrotation Yrotation Xrotation
								End Site
								{
									OFFSET 0.000000 0.000000 0.000000
								}
							}
						}
					}
				}
			}
		}
	}
}
MOTION
Frames: 11
Frame Time: 0.033333
1.583922 0.127854 1.011713 -52.867901 -1.181822 91.177472 -0.649057 1.748308 8.789675 1.822173 -2.548283 9.647969 -0.429517 12.388706 -25.708995 0.000000 -0.000000 0.000000 4.480692 2.688566 -17.576819 -7.034852 -10.180109 -1.331497 0.404438 -18.731292 -9.767171 0.000000 -0.000000 0.000000 -0.991472 -1.073260 3.287193 2.558441 0.253449 4.132298 1.516524 -0.474690 -3.140371 4.064416 -7.359397 -5.686809 -1.477530 -14.647580 21.590466 -24.320981 1.842353 4.381652 -55.912176 -10.137465 6.090899 14.071489 -22.933660 -4.372350 1.354141 -24.624069 8.916452 27.425381 3.956862 4.489587 54.550835 1.250883 13.838089 -9.034966 22.772067 2.870484 3.343023 12.602835 -0.536460 
1.559845 0.119445 1.011490 -53.612132 -0.273188 91.274728 1.090896 1.155304 9.131304 0.799118 -3.204346 12.744513 -1.129041 12.637831 -23.409033 0.000000 -0.000000 0.000000 5.664440 3.125807 -16.983984 -6.175349 -7.972739 0.704844 1.029821 -17.384063 -7.682642 0.000000 -0.000000 0.000000 0.031067 -1.312359 3.047233 2.520214 0.792831 2.248715 1.357399 -0.581157 -1.494297 4.018829 -7.788349 -5.189087 -1.409749 -14.098801 21.967093 -23.660391 1.978023 4.553775 -57.724183 -9.905139 6.892625 14.767345 -23.248636 -2.463343 4.411323 -24.598299 4.961475 26.644517 3.652078 3.837196 55.101114 0.885040 13.694120 -7.930084 21.393584 5.570090 2.062724 12.364293 -2.323330 
1.533717 0.112197 1.014240 -54.158310 -0.007753 91.296053 2.491020 0.625480 8.307027 -0.634205 -2.874562 17.739734 -1.718643 12.772859 -20.873746 0.000000 -0.000000 0.000000 6.250171 3.404793 -16.014766 -5.541084 -7.589644 2.608662 0.088585 -17.063947 -8.344557 0.000000 -0.000000 0.000000 -0.163583 -1.365820 2.337415 2.979631 0.550473 1.993447 1.258945 -0.541018 -1.244101 3.989066 -7.800305 -4.683112 -1.638849 -14.251513 22.687931 -23.254201 2.667036 4.314056 -59.148507 -9.120048 7.949028 14.264959 -23.402032 -1.648728 10.519643 -25.259562 0.867905 26.193915 3.426168 3.515768 56.023873 0.796842 14.052162 -8.427825 19.233762 5.885737 -1.009795 11.824552 -1.926078 
1.503602 0.105750 1.018296 -55.178737 -0.239649 91.853497 3.877154 -0.239696 3.767310 -2.334766 0.160160 28.079231 -2.369451 11.482941 -15.095081 0.000000 -0.000000 0.000000 7.063585 3.889949 -14.502124 -5.382339 -6.008236 2.611338 -1.708153 -16.636081 -9.032093 0.000000 -0.000000 0.000000 -1.147871 -0.530746 1.696373 3.402528 0.311924 0.934661 1.183317 -0.699585 -0.850922 3.850348 -7.839771 -4.299504 -1.437430 -14.088384 23.607475 -22.470835 2.903100 4.673408 -60.824473 -8.923643 8.427654 14.545440 -23.070666 -1.087210 9.616163 -24.680356 -0.062256 25.595052 2.895773 3.294159 57.225978 0.412303 14.133577 -9.318175 18.411496 5.605165 -0.406672 11.306136 -3.720244 
1.487250 0.102439 1.019864 -55.996367 -0.399625 91.807521 4.576761 -0.565462 0.421089 -2.725039 2.186502 35.704311 -1.694425 10.509211 -8.217030 0.000000 -0.000000 0.000000 7.730448 3.255159 -12.924577 -5.357924 -5.802141 1.842039 -3.132948 -15.308166 -9.527387 0.000000 -0.000000 0.000000 -1.234831 0.225884 2.150686 3.217542 0.087801 0.417510 1.053164 -0.884251 -0.954437 3.451063 -7.790996 -4.268310 -0.903543 -13.778581 23.734985 -22.182863 2.440584 4.853641 -61.286618 -8.423509 8.150814 14.849167 -23.282102 -0.299674 5.851219 -23.577064 0.535008 24.817895 3.297470 3.773662 58.146499 0.271999 13.402437 -9.506577 18.731822 6.170928 0.840873 11.588014 -4.772110 
1.465502 0.096883 1.020037 -57.540766 -0.437224 90.926290 5.231616 -0.959046 -3.111648 -3.516866 3.544721 44.472938 -1.412969 10.530808 -6.198945 0.000000 -0.000000 0.000000 8.783381 2.445399 -9.545031 -5.357276 -4.666269 0.048743 -4.009194 -14.539820 -9.891087 0.000000 -0.000000 0.000000 -0.896387 1.258410 3.304309 2.843371 -0.407094 0.679776 0.635179 -0.676343 -1.168656 3.187725 -7.858196 -5.163481 -0.518286 -13.480186 23.797082 -22.076730 1.403131 5.159521 -61.385962 -7.804204 8.262991 15.089271 -23.633027 0.526238 7.317045 -24.151286 -0.087637 24.173329 4.066702 3.535942 58.366323 -0.292476 13.385329 -8.995023 19.847927 7.720383 1.289256 11.754707 -6.911432 
1.447212 0.092404 1.018991 -59.948361 -0.538458 90.654198 5.193990 -1.201838 -7.500931 -3.761913 5.240015 51.120367 -0.798333 10.177976 -7.437582 0.000000 -0.000000 0.000000 9.417104 1.834441 -7.343663 -5.288242 -2.813726 -1.129323 -4.023225 -13.511270 -10.515254 0.000000 -0.000000 0.000000 -0.821998 2.735268 4.314226 2.638947 -0.215612 0.125257 0.511935 -0.419454 -0.685390 3.272629 -8.016927 -6.433256 -0.652574 -13.303386 24.056708 -22.615661 0.910836 4.667435 -61.451468 -7.818206 8.459698 14.943333 -23.435684 0.841749 7.637989 -23.942266 1.044430 24.330466 4.561634 3.497314 57.008739 0.164151 13.230513 -8.424081 20.923068 8.130373 1.636675 11.850223 -6.833298 
1.429178 0.087409 1.019563 -62.379748 -0.713172 90.299126 4.844581 -1.932606 -11.588320 -4.101995 6.774630 55.120308 -0.077442 9.329673 -9.003387 0.000000 -0.000000 0.000000 9.856711 1.291369 -4.478383 -5.536085 -0.880298 -3.304438 -3.468837 -12.921706 -11.323318 0.000000 -0.000000 0.000000 -0.987055 4.009371 4.902738 2.577140 -0.308282 0.170237 0.513759 0.058557 -0.430544 3.260562 -8.000361 -6.510336 -0.428188 -13.309900 23.992505 -23.202811 0.813620 4.308854 -61.640386 -7.812537 8.825289 14.957094 -23.334984 0.725220 9.950200 -24.326196 0.334103 24.946759 5.119139 3.863894 55.219912 1.085071 13.280010 -7.985104 21.014235 9.020746 -1.419296 12.430003 -5.551783 
1.413280 0.082763 1.020348 -64.594843 -0.895877 90.272421 4.382482 -2.969459 -16.036129 -3.967751 8.190959 56.682848 0.314547 8.553298 -10.139834 0.000000 -0.000000 0.000000 9.992553 0.815564 -2.265616 -5.643748 0.171961 -5.196524 -2.865742 -12.084832 -12.002361 0.000000 -0.000000 0.000000 -1.167855 5.064722 5.293994 2.628606 -0.700909 0.222437 0.635833 0.441218 -0.274729 3.018478 -8.059313 -6.177523 -0.208020 -13.000459 23.575206 -22.965148 0.508207 4.114888 -62.762648 -7.672258 9.084442 15.168401 -23.274494 0.261304 10.297183 -23.768479 -0.775801 24.495980 5.883054 3.978995 54.929785 2.276114 12.826071 -9.284320 21.073026 7.514179 0.430941 11.791043 -5.885739 
1.393330 0.077209 1.020705 -68.177472 -1.293020 90.634823 3.582383 -3.804519 -21.039662 -2.805970 9.748631 54.914285 1.116706 8.654733 -11.615534 0.000000 -0.000000 0.000000 9.951642 0.081946 -0.875617 -6.029786 2.113769 -5.640407 -2.114224 -10.254197 -13.038700 0.000000 -0.000000 0.000000 -1.847386 6.740984 5.269794 2.720914 -0.819047 0.327983 0.868530 0.763033 -0.070410 2.928320 -7.158152 -5.830173 0.022143 -12.966259 23.486545 -22.883666 0.288637 3.870087 -63.070790 -7.367632 9.174890 14.546773 -23.804935 0.573437 10.112388 -23.567151 -0.861720 24.501756 6.349387 4.387839 54.513648 4.122236 11.884333 -10.779252 21.521009 4.991789 -0.340699 11.662943 -6.139205 
1.378229 0.072333 1.020968 -70.511489 -1.419264 90.464305 2.837181 -4.609338 -23.940574 -1.891675 9.805836 51.172369 1.843502 9.391584 -12.442573 0.000000 -0.000000 0.000000 9.939536 0.460212 0.624217 -6.190409 3.184396 -5.731112 -1.820144 -9.750784 -14.299721 0.000000 -0.000000 0.000000 -1.633047 7.236970 6.455647 2.454712 -0.977716 0.035375 0.670146 1.191118 -0.199113 3.203911 -6.333998 -6.257532 -0.222795 -13.215333 23.689089 -23.174989 0.244016 3.343957 -62.461379 -6.834912 9.177543 14.261171 -24.161963 1.354843 7.383126 -23.552035 0.326798 24.825508 6.615073 4.324202 54.295716 5.018926 11.641237 -11.953779 22.418631 3.131145 -0.737940 10.974950 -7.312910 
